<svg width="48" height="48" viewBox="0 0 48 48" fill="none" xmlns="http://www.w3.org/2000/svg">
<path d="M32.8206 40.9925C32.1274 41.3004 31.5114 41.6084 30.8182 41.9163V40.2222C30.8182 39.2983 30.5103 38.5281 29.8943 37.9122C29.5863 37.6042 29.1243 37.6042 28.8163 37.9122C28.5083 38.2201 28.5083 38.6821 28.8163 38.9901C29.1243 39.298 29.2783 39.6832 29.2783 40.2219V42.4548C27.5844 42.9175 25.8133 43.1487 24.0422 43.1487C20.962 43.1487 18.0358 42.4556 15.4175 41.1465V36.7576C15.4175 36.2185 15.3403 35.7566 15.1095 35.3718L14.4163 33.832C14.1852 33.3701 14.1852 32.831 14.4163 32.2922L14.9555 31.1372C15.1095 30.752 14.9555 30.2901 14.5703 30.1361C14.1852 29.9822 13.7232 30.1361 13.5692 30.5213L13.0304 31.5988C12.4913 32.5226 12.4913 33.6777 13.0304 34.5247L13.7236 35.9877C13.8008 36.1417 13.8776 36.4497 13.8776 36.7576V40.2227C12.5684 39.3757 11.3365 38.3746 10.2582 37.2968C9.95022 36.9888 9.48823 36.9888 9.1802 37.2968C8.87222 37.6047 8.87222 38.0667 9.1802 38.3747C13.1075 42.4557 18.4209 44.6886 24.1195 44.6886C27.4309 44.6886 30.7419 43.9187 33.591 42.3785C33.9761 42.1474 34.1301 41.6855 33.8989 41.3775C33.6678 40.9928 33.2058 40.8388 32.8207 40.9928L32.8206 40.9925Z" fill="white"/>
<path d="M37.0556 38.066C36.7476 38.3739 36.7476 38.8359 36.9784 39.1439C37.3636 39.6058 37.9024 39.2979 38.0564 39.2211C42.369 35.2941 44.8332 29.6733 44.8332 23.8987C44.8332 18.1241 42.523 12.7343 38.3648 8.80714C38.0568 8.49918 37.5948 8.49918 37.2868 8.80714C36.9788 9.11509 36.9788 9.57703 37.2868 9.88504C39.8279 12.349 41.5989 15.275 42.5229 18.509H40.4438C39.9046 18.509 39.5198 18.355 39.2118 18.0471L37.1327 15.9681C37.0555 15.891 36.8247 15.583 36.8247 15.5062L36.1316 14.2743C35.6696 13.119 34.5145 12.2722 33.2821 12.349C31.2798 12.4262 30.2019 14.4279 30.2019 14.4279C29.8939 15.0438 29.278 15.4289 28.662 15.4289C28.2 15.4289 27.8921 15.7369 27.8921 16.1988C27.8921 16.6608 28.2 16.9687 28.662 16.9687C29.8172 16.9687 30.9723 16.2756 31.5883 15.1205C31.5883 15.1205 32.1274 13.8115 33.2825 13.8887C33.8985 13.8887 34.4377 14.2738 34.7456 14.9666L35.4388 16.1984C35.5928 16.5836 35.9008 16.8915 36.0548 17.0455L38.1339 19.1244C38.7498 19.7404 39.5198 20.0483 40.4441 20.0483H42.9083C43.1395 21.0493 43.2163 22.0504 43.2935 23.1282H40.0593C39.7513 23.1282 39.5202 23.0511 39.2894 22.9743L37.441 22.0504C37.133 21.8964 36.8251 21.6652 36.6711 21.2805L36.2091 20.2795C35.5923 19.202 34.4372 18.5089 33.2821 18.5089H28.1228C27.1988 18.5089 26.4285 18.8168 25.8125 19.4327L24.1954 21.0497C23.5795 21.6656 23.2715 22.4355 23.2715 23.3597V25.9006C23.2715 26.8245 23.5795 27.5947 24.1954 28.2107L26.2745 30.2896C26.4285 30.4435 26.9677 30.7515 27.3525 30.2896C27.6605 29.9816 27.6605 29.5197 27.3525 29.2117L25.2734 27.1328C24.9654 26.8248 24.8114 26.4397 24.8114 25.9009V23.36C24.8114 22.8209 24.9654 22.4362 25.2734 22.1282L26.8905 20.5112C27.1985 20.2033 27.5837 20.0493 28.1225 20.0493L33.2822 20.0485C33.8981 20.0485 34.5141 20.4337 34.8993 21.0495L35.3612 21.9734C35.6692 22.5893 36.2084 23.0513 36.7472 23.3592L38.5955 24.2831C38.9807 24.5143 39.5195 24.591 39.9814 24.591L43.2932 24.5914C43.062 29.7503 40.829 34.6016 37.0555 38.0661L37.0556 38.066Z" fill="white"/>
<path d="M8.33283 10.2692C8.02485 10.5772 8.10165 11.1163 8.41001 11.3471C9.10317 11.8862 9.64198 11.1159 9.71916 11.0391L10.4891 13.3492C10.5663 13.6571 10.9511 13.9651 11.4902 13.8111C11.8754 13.734 12.1062 13.272 11.9522 12.8101L10.9511 9.73019C14.4161 6.4963 19.1134 4.64852 24.0416 4.64852C25.8899 4.64852 27.661 4.87968 29.432 5.41841V6.72744C29.432 7.49734 28.97 8.19043 28.2768 8.34439L26.9677 8.72953C25.6586 9.26864 24.8114 10.4236 24.8114 11.8095C24.8114 12.2714 25.1194 12.5794 25.5814 12.5794C26.0434 12.5794 26.3513 12.2714 26.3513 11.8095C26.3513 11.0396 26.8133 10.4236 27.5065 10.1925L28.7385 9.80737C30.0476 9.42224 30.9715 8.11326 30.9715 6.65066V5.88077C31.4335 6.03474 31.9727 6.2659 32.4347 6.49668C32.8198 6.65066 33.2818 6.49668 33.4358 6.11155C33.5898 5.72641 33.4358 5.26447 33.0506 5.11053C30.2787 3.8015 27.1985 3.1084 24.0414 3.1084C18.035 3.1084 12.2588 5.72646 8.33229 10.2694L8.33283 10.2692Z" fill="white"/>
<path d="M6.3302 14.4272C5.94503 14.2732 5.48305 14.4272 5.3291 14.8123C3.94316 17.6611 3.25 20.741 3.25 23.8982C3.25 26.8242 3.86597 29.673 5.02106 32.3682C5.17505 32.6762 5.63703 32.9842 6.02216 32.7534C6.40733 32.5994 6.56132 32.1375 6.40733 31.7524C5.32905 29.288 4.79025 26.5931 4.79025 23.8983C4.79025 20.9723 5.40622 18.1235 6.71537 15.5055C6.94617 15.1203 6.71537 14.6583 6.3302 14.4272Z" fill="white"/>
<path d="M9.71901 41.8394C3.0966 47.0754 1.47951 46.4591 1.47951 46.4591C0.86354 45.1501 6.86996 35.5256 21.1925 21.2811C35.5155 6.95933 45.0648 0.953619 46.3737 1.56984C46.3737 1.56984 46.9897 2.87887 41.9075 9.57748C41.6764 9.88544 41.7536 10.4246 42.0615 10.6554C42.3695 10.8865 42.9087 10.8094 43.1395 10.5014C48.6069 3.26365 48.2988 1.33869 47.4517 0.491238C46.9897 0.0292971 46.2193 0.0292969 46.2193 0.0292969C42.1379 0.0292969 29.8166 10.5011 20.1147 20.2032C11.9524 28.3652 -2.60138 44.5351 0.401734 47.538C0.632915 47.7691 1.01771 47.9999 1.6337 47.9999C2.94284 47.9999 5.48385 46.922 10.6432 43.0718C10.9512 42.8406 11.0284 42.3019 10.7972 41.9939C10.5664 41.6092 10.0273 41.5324 9.71925 41.8403L9.71901 41.8394Z" fill="white"/>
<path d="M16.0328 22.3581C16.3408 22.0502 16.3408 21.5882 16.0328 21.2802C5.2519 9.73048 1.01721 2.64687 1.55621 1.56897C1.55621 1.56897 2.86535 0.953055 9.79571 6.18867C10.1037 6.41983 10.6429 6.34265 10.8737 6.0347C11.1049 5.72674 11.0277 5.18762 10.7197 4.9568C3.32734 -0.587234 1.40222 -0.433178 0.477807 0.490665C-2.37124 3.26268 9.64133 16.6601 14.9544 22.3587C15.1088 22.5127 15.6479 22.7438 16.0327 22.3587L16.0328 22.3581Z" fill="white"/>
<path d="M43.0619 37.2955C42.8307 36.9876 42.2919 36.9104 41.9839 37.1415C41.6759 37.3727 41.5987 37.9114 41.8299 38.2194C46.1421 43.8403 46.6041 46.0731 46.45 46.3814C45.1409 46.9973 35.5155 40.9915 21.2698 26.6702C20.8846 26.2851 20.5766 25.9771 20.1918 25.5923C19.8838 25.2843 19.4218 25.2843 19.1138 25.5923C18.8058 25.9002 18.8058 26.3622 19.1138 26.6702L20.1918 27.7481C27.5842 35.1398 41.599 47.8447 46.3737 47.8447C46.8357 47.8447 47.2209 47.6907 47.5289 47.4596C48.0677 46.9205 49.2996 45.5346 43.0623 37.2958L43.0619 37.2955Z" fill="white"/>
<path d="M9.1797 17.0454C8.79452 16.8914 8.33254 17.1994 8.25574 17.5845C8.10175 18.2004 8.10175 18.8163 8.33293 19.5094L9.02608 21.6655C9.33406 22.4354 9.87324 23.1285 10.6432 23.5905L11.7983 24.1296C12.2603 24.3608 12.5683 24.8227 12.7223 25.2075C12.7995 25.5926 13.1843 25.9006 13.6462 25.8234C14.0314 25.6694 14.3394 25.2843 14.2622 24.8995C14.031 23.9757 13.4151 23.2054 12.4912 22.7435L11.4132 22.2043C11.028 21.9732 10.72 21.5884 10.566 21.2033L9.87286 19.0472C9.79568 18.7393 9.71887 18.3541 9.87286 18.0462C9.87248 17.5847 9.5645 17.1227 9.17971 17.0456L9.1797 17.0454Z" fill="white"/>
</svg>
